KumbhSans-ThinDisplay.ufo
<glyph name="dollar" format="1">
  <advance width="1042"/>
  <unicode hex="0024"/>
  <outline>
    <contour>
      <point x="115" y="202" type="line"/>
      <point x="224" y="112"/>
      <point x="363" y="60"/>
      <point x="505" y="60" type="curve"/>
      <point x="505" y="-120" type="line"/>
      <point x="547" y="-120" type="line"/>
      <point x="547" y="62" type="line"/>
      <point x="765" y="79"/>
      <point x="917" y="222"/>
      <point x="917" y="424" type="curve" smooth="yes"/>
      <point x="917" y="648"/>
      <point x="732" y="730"/>
      <point x="556" y="803" type="curve" smooth="yes"/>
      <point x="388" y="873"/>
      <point x="230" y="941"/>
      <point x="230" y="1119" type="curve" smooth="yes"/>
      <point x="230" y="1283"/>
      <point x="366" y="1400"/>
      <point x="556" y="1400" type="curve" smooth="yes"/>
      <point x="643" y="1400"/>
      <point x="730" y="1375"/>
      <point x="811" y="1329" type="curve"/>
      <point x="832" y="1368" type="line"/>
      <point x="751" y="1415"/>
      <point x="644" y="1440"/>
      <point x="547" y="1440" type="curve"/>
      <point x="547" y="1620" type="line"/>
      <point x="505" y="1620" type="line"/>
      <point x="505" y="1437" type="line"/>
      <point x="313" y="1418"/>
      <point x="185" y="1294"/>
      <point x="185" y="1118" type="curve" smooth="yes"/>
      <point x="185" y="911"/>
      <point x="359" y="836"/>
      <point x="531" y="765" type="curve" smooth="yes"/>
      <point x="703" y="694"/>
      <point x="872" y="620"/>
      <point x="872" y="423" type="curve" smooth="yes"/>
      <point x="872" y="235"/>
      <point x="718" y="102"/>
      <point x="502" y="102" type="curve" smooth="yes"/>
      <point x="366" y="102"/>
      <point x="243" y="155"/>
      <point x="137" y="240" type="curve"/>
    </contour>
  </outline>
</glyph>
<glyph name="parenright" format="1">
  <advance width="642"/>
  <unicode hex="0029"/>
  <outline>
    <contour>
      <point x="236" y="-289" type="line"/>
      <point x="432" y="-24"/>
      <point x="537" y="294"/>
      <point x="537" y="625" type="curve" smooth="yes" name="dh01"/>
      <point x="537" y="956"/>
      <point x="432" y="1274"/>
      <point x="236" y="1540" type="curve"/>
      <point x="185" y="1540" type="line" name="av01"/>
      <point x="387" y="1277"/>
      <point x="496" y="956"/>
      <point x="496" y="626" type="curve" smooth="yes" name="dh02"/>
      <point x="496" y="297"/>
      <point x="386" y="-25"/>
      <point x="185" y="-289" type="curve" name="av02"/>
    </contour>
  </outline>
</glyph>
<glyph name="equal" format="1">
  <advance width="1325"/>
  <unicode hex="003D"/>
  <outline>
    <contour>
      <point x="1140" y="698" type="line"/>
      <point x="1140" y="740" type="line"/>
      <point x="185" y="740" type="line"/>
      <point x="185" y="698" type="line"/>
    </contour>
    <contour>
      <point x="1140" y="211" type="line"/>
      <point x="1140" y="253" type="line"/>
      <point x="185" y="253" type="line"/>
      <point x="185" y="211" type="line"/>
    </contour>
  </outline>
</glyph>
<glyph name="J" format="1">
  <advance width="441"/>
  <unicode hex="004A"/>
  <outline>
    <contour>
      <point x="-165" y="-360" type="line"/>
      <point x="118" y="-360"/>
      <point x="256" y="-221"/>
      <point x="256" y="64" type="curve" smooth="yes"/>
      <point x="256" y="1500" type="line"/>
      <point x="212" y="1500" type="line"/>
      <point x="212" y="51" type="line" smooth="yes"/>
      <point x="212" y="-192"/>
      <point x="84" y="-318"/>
      <point x="-165" y="-318" type="curve"/>
    </contour>
  </outline>
</glyph>
<glyph name="M" format="1">
  <advance width="1790"/>
  <unicode hex="004D"/>
  <outline>
    <contour>
      <point x="1605" y="0" type="line"/>
      <point x="1605" y="1500" type="line"/>
      <point x="1537" y="1500" type="line"/>
      <point x="894" y="292" type="line"/>
      <point x="249" y="1500" type="line"/>
      <point x="185" y="1500" type="line"/>
      <point x="185" y="0" type="line"/>
      <point x="229" y="0" type="line"/>
      <point x="229" y="1446" type="line"/>
      <point x="868" y="252" type="line"/>
      <point x="919" y="252" type="line"/>
      <point x="1561" y="1450" type="line"/>
      <point x="1561" y="0" type="line"/>
    </contour>
  </outline>
</glyph>
<glyph name="Q" format="1">
  <advance width="1750"/>
  <unicode hex="0051"/>
  <outline>
    <contour>
      <point x="1604" y="-202" type="curve"/>
      <point x="1611" y="-145" type="line"/>
      <point x="1406" y="-134"/>
      <point x="1252" y="-103"/>
      <point x="1000" y="-21" type="curve"/>
      <point x="1379" y="34"/>
      <point x="1645" y="343"/>
      <point x="1645" y="750" type="curve" smooth="yes"/>
      <point x="1645" y="1201"/>
      <point x="1320" y="1530"/>
      <point x="876" y="1530" type="curve" smooth="yes"/>
      <point x="430" y="1530"/>
      <point x="105" y="1201"/>
      <point x="105" y="750" type="curve" smooth="yes"/>
      <point x="105" y="299"/>
      <point x="430" y="-30"/>
      <point x="876" y="-29" type="curve"/>
      <point x="921" y="-29" type="line"/>
      <point x="1142" y="-120"/>
      <point x="1306" y="-162"/>
    </contour>
    <contour>
      <point x="875" y="12" type="curve" smooth="yes"/>
      <point x="456" y="12"/>
      <point x="150" y="324"/>
      <point x="150" y="750" type="curve" smooth="yes"/>
      <point x="150" y="1176"/>
      <point x="456" y="1488"/>
      <point x="875" y="1488" type="curve" smooth="yes"/>
      <point x="1294" y="1488"/>
      <point x="1600" y="1175"/>
      <point x="1600" y="750" type="curve" smooth="yes"/>
      <point x="1600" y="325"/>
      <point x="1294" y="12"/>
    </contour>
  </outline>
</glyph>
<glyph name="V" format="1">
  <advance width="1515"/>
  <unicode hex="0056"/>
  <outline>
    <contour>
      <point x="787" y="0" type="line"/>
      <point x="1420" y="1500" type="line"/>
      <point x="1372" y="1500" type="line"/>
      <point x="758" y="46" type="line"/>
      <point x="143" y="1500" type="line"/>
      <point x="95" y="1500" type="line"/>
      <point x="728" y="0" type="line"/>
    </contour>
  </outline>
</glyph>
<glyph name="i" format="1">
  <advance width="450"/>
  <unicode hex="0069"/>
  <outline>
    <contour>
      <point x="224" y="1420" type="curve" smooth="yes"/>
      <point x="252" y="1420"/>
      <point x="275" y="1442"/>
      <point x="275" y="1470" type="curve" smooth="yes"/>
      <point x="275" y="1498"/>
      <point x="252" y="1520"/>
      <point x="224" y="1520" type="curve" smooth="yes"/>
      <point x="196" y="1520"/>
      <point x="175" y="1498"/>
      <point x="175" y="1470" type="curve" smooth="yes"/>
      <point x="175" y="1442"/>
      <point x="196" y="1420"/>
    </contour>
    <contour>
      <point x="245" y="0" type="line"/>
      <point x="245" y="1000" type="line"/>
      <point x="204" y="1000" type="line"/>
      <point x="204" y="0" type="line"/>
    </contour>
  </outline>
</glyph>
<glyph name="cent" format="1">
  <advance width="1094"/>
  <unicode hex="00A2"/>
  <outline>
    <contour>
      <point x="979" y="269" type="curve"/>
      <point x="951" y="298" type="line"/>
      <point x="867" y="211"/>
      <point x="749" y="158"/>
      <point x="614.483" y="158" type="curve" smooth="yes"/>
      <point x="348" y="158"/>
      <point x="146" y="366"/>
      <point x="146" y="640" type="curve" smooth="yes"/>
      <point x="146" y="914"/>
      <point x="348" y="1122"/>
      <point x="614.483" y="1122" type="curve" smooth="yes" name="dv03.1"/>
      <point x="749" y="1122"/>
      <point x="867" y="1069"/>
      <point x="951" y="982" type="curve"/>
      <point x="979" y="1011" type="line"/>
      <point x="893" y="1099"/>
      <point x="774" y="1153"/>
      <point x="639" y="1159" type="curve"/>
      <point x="639" y="1340" type="line" name="av02.1"/>
      <point x="598" y="1340" type="line" name="sh02.1"/>
      <point x="598" y="1160" type="line"/>
      <point x="316" y="1160"/>
      <point x="105" y="930"/>
      <point x="105" y="640" type="curve" smooth="yes"/>
      <point x="105" y="350"/>
      <point x="316" y="120"/>
      <point x="598" y="120" type="curve" name="dv02.1"/>
      <point x="598" y="-60" type="line" name="av01.1"/>
      <point x="639" y="-60" type="line"/>
      <point x="639" y="120" type="line" name="sh01.1"/>
      <point x="774" y="126"/>
      <point x="893" y="181"/>
    </contour>
  </outline>
</glyph>
<glyph name="yen" format="1">
  <advance width="1166"/>
  <unicode hex="00A5"/>
  <outline>
    <contour>
      <point x="605" y="0" type="line"/>
      <point x="605" y="367" type="line"/>
      <point x="1016" y="367" type="line"/>
      <point x="1016" y="405" type="line"/>
      <point x="605" y="405" type="line"/>
      <point x="605" y="620" type="line"/>
      <point x="1016" y="620" type="line"/>
      <point x="1016" y="658" type="line"/>
      <point x="614" y="658" type="line"/>
      <point x="1101" y="1500" type="line"/>
      <point x="1050" y="1500" type="line"/>
      <point x="583" y="692" type="line"/>
      <point x="116" y="1500" type="line"/>
      <point x="65" y="1500" type="line"/>
      <point x="551" y="658" type="line"/>
      <point x="149" y="658" type="line"/>
      <point x="149" y="620" type="line"/>
      <point x="561" y="620" type="line"/>
      <point x="561" y="405" type="line"/>
      <point x="149" y="405" type="line"/>
      <point x="149" y="367" type="line"/>
      <point x="561" y="367" type="line"/>
      <point x="561" y="0" type="line"/>
    </contour>
  </outline>
</glyph>
<glyph name="mu" format="1">
  <advance width="1329"/>
  <unicode hex="00B5"/>
  <outline>
    <contour>
      <point x="1263" y="-20" type="curve"/>
      <point x="1263" y="18" type="line"/>
      <point x="1108" y="18"/>
      <point x="1027" y="113"/>
      <point x="1027" y="295" type="curve" smooth="yes"/>
      <point x="1027" y="1000" type="line"/>
      <point x="986" y="1000" type="line"/>
      <point x="986" y="432" type="line" smooth="yes"/>
      <point x="986" y="169"/>
      <point x="846" y="18"/>
      <point x="613" y="18" type="curve" smooth="yes"/>
      <point x="373" y="18"/>
      <point x="226" y="178"/>
      <point x="226" y="437" type="curve" smooth="yes"/>
      <point x="226" y="1000" type="line"/>
      <point x="185" y="1000" type="line"/>
      <point x="185" y="-500" type="line"/>
      <point x="225" y="-500" type="line"/>
      <point x="225" y="225" type="line"/>
      <point x="291" y="66"/>
      <point x="423" y="-20"/>
      <point x="611" y="-20" type="curve" smooth="yes"/>
      <point x="799" y="-20"/>
      <point x="933" y="68"/>
      <point x="993" y="226" type="curve"/>
      <point x="1016" y="58"/>
      <point x="1102" y="-20"/>
    </contour>
  </outline>
</glyph>
<glyph name="onesuperior" format="1">
  <advance width="489"/>
  <unicode hex="00B9"/>
  <outline>
    <contour>
      <point x="304" y="780" type="line"/>
      <point x="304" y="1500" type="line"/>
      <point x="270" y="1500" type="line"/>
      <point x="105" y="1440" type="line"/>
      <point x="118" y="1404" type="line"/>
      <point x="263" y="1456" type="line"/>
      <point x="263" y="780" type="line"/>
    </contour>
  </outline>
</glyph>
<glyph name="Ccedilla" format="1">
  <advance width="1565"/>
  <unicode hex="00C7"/>
  <outline>
    <contour>
      <point x="1430" y="195" type="curve"/>
      <point x="1399" y="226" type="line"/>
      <point x="1270" y="92"/>
      <point x="1087" y="12"/>
      <point x="875" y="12" type="curve" smooth="yes"/>
      <point x="456" y="12"/>
      <point x="150" y="324"/>
      <point x="150" y="750" type="curve" smooth="yes"/>
      <point x="150" y="1176"/>
      <point x="456" y="1488"/>
      <point x="875" y="1488" type="curve" smooth="yes"/>
      <point x="1087" y="1488"/>
      <point x="1270" y="1408"/>
      <point x="1399" y="1274" type="curve"/>
      <point x="1430" y="1306" type="line"/>
      <point x="1293" y="1446"/>
      <point x="1100" y="1530"/>
      <point x="876" y="1530" type="curve" smooth="yes"/>
      <point x="430" y="1530"/>
      <point x="105" y="1201"/>
      <point x="105" y="750" type="curve" smooth="yes"/>
      <point x="105" y="307"/>
      <point x="419" y="-19"/>
      <point x="853" y="-30" type="curve"/>
      <point x="812" y="-135" type="line"/>
      <point x="827" y="-133"/>
      <point x="841" y="-132"/>
      <point x="854" y="-132" type="curve" smooth="yes"/>
      <point x="948" y="-132"/>
      <point x="1014" y="-177"/>
      <point x="1014" y="-246" type="curve" smooth="yes"/>
      <point x="1014" y="-318"/>
      <point x="942" y="-369"/>
      <point x="841" y="-369" type="curve" smooth="yes"/>
      <point x="805" y="-369"/>
      <point x="767" y="-362"/>
      <point x="731" y="-349" type="curve"/>
      <point x="719" y="-388" type="line"/>
      <point x="765" y="-401"/>
      <point x="808" y="-407"/>
      <point x="846" y="-407" type="curve" smooth="yes"/>
      <point x="968" y="-407"/>
      <point x="1055" y="-341"/>
      <point x="1055" y="-249" type="curve" smooth="yes"/>
      <point x="1055" y="-159"/>
      <point x="975" y="-100"/>
      <point x="867" y="-100" type="curve"/>
      <point x="894" y="-30" type="line"/>
      <point x="1111" y="-26"/>
      <point x="1298" y="58"/>
    </contour>
  </outline>
</glyph>
<glyph name="Ecircumflex" format="1">
  <advance width="1240"/>
  <unicode hex="00CA"/>
  <outline>
    <contour>
      <point x="862" y="1670" type="line"/>
      <point x="657" y="2000" type="line" name="at01"/>
      <point x="600" y="2000" type="line" name="at01.1"/>
      <point x="395" y="1670" type="line"/>
      <point x="429" y="1670" type="line" name="av01"/>
      <point x="629" y="1966" type="line"/>
      <point x="828" y="1670" type="line" name="av01.1"/>
    </contour>
    <contour>
      <point x="185" y="0" type="line"/>
      <point x="1065" y="0" type="line"/>
      <point x="1065" y="42" type="line"/>
      <point x="229" y="42" type="line"/>
      <point x="229" y="748" type="line"/>
      <point x="1014" y="748" type="line"/>
      <point x="1014" y="790" type="line"/>
      <point x="229" y="790" type="line"/>
      <point x="229" y="1458" type="line"/>
      <point x="1055" y="1458" type="line"/>
      <point x="1055" y="1500" type="line"/>
      <point x="185" y="1500" type="line"/>
    </contour>
  </outline>
</glyph>
<glyph name="Cacute" format="1">
  <advance width="1565"/>
  <unicode hex="0106"/>
  <outline>
    <contour>
      <point x="861" y="1670" type="line"/>
      <point x="1052" y="2000" type="line"/>
      <point x="998" y="2000" type="line"/>
      <point x="827" y="1670" type="line"/>
    </contour>
    <contour>
      <point x="1430" y="195" type="curve"/>
      <point x="1399" y="226" type="line"/>
      <point x="1270" y="92"/>
      <point x="1087" y="12"/>
      <point x="875" y="12" type="curve" smooth="yes"/>
      <point x="456" y="12"/>
      <point x="150" y="324"/>
      <point x="150" y="750" type="curve" smooth="yes"/>
      <point x="150" y="1176"/>
      <point x="456" y="1488"/>
      <point x="875" y="1488" type="curve" smooth="yes"/>
      <point x="1087" y="1488"/>
      <point x="1270" y="1408"/>
      <point x="1399" y="1274" type="curve"/>
      <point x="1430" y="1306" type="line"/>
      <point x="1293" y="1446"/>
      <point x="1100" y="1530"/>
      <point x="876" y="1530" type="curve" smooth="yes"/>
      <point x="430" y="1530"/>
      <point x="105" y="1201"/>
      <point x="105" y="750" type="curve" smooth="yes"/>
      <point x="105" y="299"/>
      <point x="430" y="-30"/>
      <point x="876" y="-30" type="curve" smooth="yes"/>
      <point x="1100" y="-30"/>
      <point x="1294" y="54"/>
    </contour>
  </outline>
</glyph>
<glyph name="Eogonek" format="1">
  <advance width="1240"/>
  <unicode hex="0118"/>
  <outline>
    <contour>
      <point x="185" y="0" type="line"/>
      <point x="1014" y="0" type="line" name="ab01"/>
      <point x="899" y="-52"/>
      <point x="828" y="-146"/>
      <point x="828" y="-243" type="curve" smooth="yes"/>
      <point x="828" y="-337"/>
      <point x="895" y="-416"/>
      <point x="1017" y="-416" type="curve" name="av01"/>
      <point x="1017" y="-379" type="line"/>
      <point x="913" y="-370"/>
      <point x="869" y="-312"/>
      <point x="869" y="-243" type="curve" smooth="yes"/>
      <point x="869" y="-155"/>
      <point x="941" y="-48"/>
      <point x="1046" y="0" type="curve"/>
      <point x="1065" y="0" type="line"/>
      <point x="1065" y="42" type="line"/>
      <point x="229" y="42" type="line"/>
      <point x="229" y="748" type="line"/>
      <point x="1014" y="748" type="line"/>
      <point x="1014" y="790" type="line"/>
      <point x="229" y="790" type="line"/>
      <point x="229" y="1458" type="line"/>
      <point x="1055" y="1458" type="line"/>
      <point x="1055" y="1500" type="line"/>
      <point x="185" y="1500" type="line"/>
    </contour>
  </outline>
</glyph>
<glyph name="hcircumflex" format="1">
  <advance width="1212"/>
  <unicode hex="0125"/>
  <outline>
    <contour>
      <point x="443" y="1670" type="line"/>
      <point x="238" y="2000" type="line" name="at01"/>
      <point x="180" y="2000" type="line" name="at01.1"/>
      <point x="-25" y="1670" type="line"/>
      <point x="10" y="1670" type="line" name="av01"/>
      <point x="209" y="1966" type="line"/>
      <point x="408" y="1670" type="line" name="av01.1"/>
    </contour>
    <contour>
      <point x="185" y="0" type="line"/>
      <point x="226" y="0" type="line"/>
      <point x="226" y="563" type="line" smooth="yes"/>
      <point x="226" y="822"/>
      <point x="377" y="982"/>
      <point x="620" y="982" type="curve" smooth="yes"/>
      <point x="862" y="982"/>
      <point x="1006" y="826"/>
      <point x="1006" y="563" type="curve" smooth="yes"/>
      <point x="1006" y="0" type="line"/>
      <point x="1047" y="0" type="line"/>
      <point x="1047" y="563" type="line" smooth="yes"/>
      <point x="1047" y="851"/>
      <point x="889" y="1020"/>
      <point x="623" y="1020" type="curve" smooth="yes"/>
      <point x="427" y="1020"/>
      <point x="290" y="930"/>
      <point x="226" y="762" type="curve"/>
      <point x="226" y="1500" type="line"/>
      <point x="185" y="1500" type="line"/>
    </contour>
  </outline>
</glyph>
<glyph name="jcircumflex" format="1">
  <advance width="417"/>
  <unicode hex="0135"/>
  <outline>
    <contour>
      <point x="449" y="1170" type="line"/>
      <point x="244" y="1500" type="line" name="at01"/>
      <point x="186" y="1500" type="line" name="at01.1"/>
      <point x="-19" y="1170" type="line"/>
      <point x="16" y="1170" type="line" name="av01"/>
      <point x="215" y="1466" type="line"/>
      <point x="414" y="1170" type="line" name="av01.1"/>
    </contour>
    <contour>
      <point x="-120" y="-513" type="line"/>
      <point x="-95" y="-518"/>
      <point x="-71" y="-520"/>
      <point x="-48" y="-520" type="curve" smooth="yes"/>
      <point x="120" y="-520"/>
      <point x="232" y="-391"/>
      <point x="232" y="-183" type="curve" smooth="yes"/>
      <point x="232" y="1000" type="line"/>
      <point x="190" y="1000" type="line"/>
      <point x="190" y="-183" type="line" smooth="yes"/>
      <point x="190" y="-363"/>
      <point x="86" y="-483"/>
      <point x="-60" y="-483" type="curve" smooth="yes"/>
      <point x="-78" y="-483"/>
      <point x="-97" y="-481"/>
      <point x="-116" y="-477" type="curve"/>
    </contour>
  </outline>
</glyph>
<glyph name="lacute" format="1">
  <advance width="412"/>
  <unicode hex="013A"/>
  <outline>
    <contour>
      <point x="219" y="1670" type="line"/>
      <point x="410" y="2000" type="line"/>
      <point x="357" y="2000" type="line"/>
      <point x="185" y="1670" type="line"/>
    </contour>
    <contour>
      <point x="226" y="0" type="line"/>
      <point x="226" y="1540" type="line" name="av01"/>
      <point x="186" y="1540" type="line" name="dh01"/>
      <point x="186" y="0" type="line" name="ab01"/>
    </contour>
  </outline>
</glyph>
<glyph name="ncommaaccent" format="1">
  <advance width="1222"/>
  <unicode hex="0146"/>
  <outline>
    <contour>
      <point x="1047" y="0" type="line"/>
      <point x="1047" y="563" type="line" smooth="yes"/>
      <point x="1047" y="851"/>
      <point x="890" y="1020"/>
      <point x="622" y="1020" type="curve" smooth="yes"/>
      <point x="426" y="1020"/>
      <point x="289" y="930"/>
      <point x="226" y="760" type="curve"/>
      <point x="226" y="1000" type="line"/>
      <point x="185" y="1000" type="line"/>
      <point x="185" y="0" type="line"/>
      <point x="226" y="0" type="line"/>
      <point x="226" y="563" type="line" smooth="yes"/>
      <point x="226" y="822"/>
      <point x="377" y="982"/>
      <point x="621" y="982" type="curve" smooth="yes"/>
      <point x="862" y="982"/>
      <point x="1006" y="826"/>
      <point x="1006" y="563" type="curve" smooth="yes"/>
      <point x="1006" y="0" type="line"/>
    </contour>
    <contour>
      <point x="547" y="-442" type="line"/>
      <point x="634" y="-396"/>
      <point x="691" y="-296"/>
      <point x="691" y="-187" type="curve" smooth="yes"/>
      <point x="691" y="-149"/>
      <point x="684" y="-113"/>
      <point x="671" y="-78" type="curve"/>
      <point x="635" y="-90" type="line"/>
      <point x="648" y="-121"/>
      <point x="654" y="-154"/>
      <point x="654" y="-187" type="curve" smooth="yes"/>
      <point x="654" y="-276"/>
      <point x="609" y="-367"/>
      <point x="531" y="-418" type="curve"/>
    </contour>
  </outline>
</glyph>
<glyph name="ncaron" format="1">
  <advance width="1222"/>
  <unicode hex="0148"/>
  <outline>
    <contour>
      <point x="660" y="1170" type="line" name="at01"/>
      <point x="865" y="1500" type="line"/>
      <point x="830" y="1500" type="line" name="av01"/>
      <point x="631" y="1204" type="line"/>
      <point x="432" y="1500" type="line" name="av01.1"/>
      <point x="397" y="1500" type="line"/>
      <point x="602" y="1170" type="line" name="at01.1"/>
    </contour>
    <contour>
      <point x="1047" y="0" type="line"/>
      <point x="1047" y="563" type="line" smooth="yes"/>
      <point x="1047" y="851"/>
      <point x="890" y="1020"/>
      <point x="622" y="1020" type="curve" smooth="yes"/>
      <point x="426" y="1020"/>
      <point x="289" y="930"/>
      <point x="226" y="760" type="curve"/>
      <point x="226" y="1000" type="line"/>
      <point x="185" y="1000" type="line"/>
      <point x="185" y="0" type="line"/>
      <point x="226" y="0" type="line"/>
      <point x="226" y="563" type="line" smooth="yes"/>
      <point x="226" y="822"/>
      <point x="377" y="982"/>
      <point x="621" y="982" type="curve" smooth="yes"/>
      <point x="862" y="982"/>
      <point x="1006" y="826"/>
      <point x="1006" y="563" type="curve" smooth="yes"/>
      <point x="1006" y="0" type="line"/>
    </contour>
  </outline>
</glyph>
<glyph name="Rcaron" format="1">
  <advance width="1245"/>
  <unicode hex="0158"/>
  <outline>
    <contour>
      <point x="661" y="1670" type="line" name="at01"/>
      <point x="866" y="2000" type="line"/>
      <point x="832" y="2000" type="line" name="av01"/>
      <point x="632" y="1704" type="line"/>
      <point x="433" y="2000" type="line" name="av01.1"/>
      <point x="399" y="2000" type="line"/>
      <point x="604" y="1670" type="line" name="at01.1"/>
    </contour>
    <contour>
      <point x="1140" y="0" type="line"/>
      <point x="737" y="684" type="line"/>
      <point x="969" y="713"/>
      <point x="1115" y="865"/>
      <point x="1115" y="1089" type="curve" smooth="yes"/>
      <point x="1115" y="1338"/>
      <point x="934" y="1500"/>
      <point x="654" y="1500" type="curve" smooth="yes"/>
      <point x="185" y="1500" type="line"/>
      <point x="185" y="0" type="line"/>
      <point x="229" y="0" type="line"/>
      <point x="229" y="679" type="line"/>
      <point x="686" y="679" type="line"/>
      <point x="1090" y="0" type="line"/>
    </contour>
    <contour>
      <point x="229" y="721" type="line"/>
      <point x="229" y="1458" type="line"/>
      <point x="654" y="1458" type="line" smooth="yes"/>
      <point x="908" y="1458"/>
      <point x="1070" y="1314"/>
      <point x="1070" y="1089" type="curve" smooth="yes"/>
      <point x="1070" y="865"/>
      <point x="907" y="721"/>
      <point x="654" y="721" type="curve" smooth="yes"/>
    </contour>
  </outline>
</glyph>
<glyph name="Scircumflex" format="1">
  <advance width="1156"/>
  <unicode hex="015C"/>
  <outline>
    <contour>
      <point x="826" y="1670" type="line"/>
      <point x="621" y="2000" type="line" name="at01"/>
      <point x="564" y="2000" type="line" name="at01.1"/>
      <point x="359" y="1670" type="line"/>
      <point x="394" y="1670" type="line" name="av01"/>
      <point x="593" y="1966" type="line"/>
      <point x="792" y="1670" type="line" name="av01.1"/>
    </contour>
    <contour>
      <point x="115" y="131" type="line"/>
      <point x="241" y="27"/>
      <point x="396" y="-30"/>
      <point x="553" y="-30" type="curve" smooth="yes"/>
      <point x="826" y="-30"/>
      <point x="1021" y="142"/>
      <point x="1021" y="384" type="curve" smooth="yes"/>
      <point x="1021" y="636"/>
      <point x="811" y="725"/>
      <point x="609" y="811" type="curve" smooth="yes"/>
      <point x="421" y="891"/>
      <point x="239" y="968"/>
      <point x="239" y="1171" type="curve" smooth="yes"/>
      <point x="239" y="1359"/>
      <point x="394" y="1488"/>
      <point x="611" y="1488" type="curve" smooth="yes"/>
      <point x="710" y="1488"/>
      <point x="810" y="1461"/>
      <point x="902" y="1410" type="curve"/>
      <point x="925" y="1449" type="line"/>
      <point x="833" y="1502"/>
      <point x="726" y="1530"/>
      <point x="616" y="1530" type="curve" smooth="yes"/>
      <point x="365" y="1530"/>
      <point x="194" y="1385"/>
      <point x="194" y="1171" type="curve" smooth="yes"/>
      <point x="194" y="942"/>
      <point x="390" y="858"/>
      <point x="586" y="775" type="curve" smooth="yes"/>
      <point x="781" y="692"/>
      <point x="976" y="610"/>
      <point x="976" y="382" type="curve" smooth="yes"/>
      <point x="976" y="165"/>
      <point x="799" y="12"/>
      <point x="549" y="12" type="curve" smooth="yes"/>
      <point x="400" y="12"/>
      <point x="259" y="66"/>
      <point x="140" y="166" type="curve"/>
    </contour>
  </outline>
</glyph>
<glyph name="umacron" format="1">
  <advance width="1192"/>
  <unicode hex="016B"/>
  <outline>
    <contour>
      <point x="907" y="1332" type="line" name="av02"/>
      <point x="907" y="1370" type="line"/>
      <point x="287" y="1370" type="line" name="av01"/>
      <point x="287" y="1332" type="line"/>
    </contour>
    <contour>
      <point x="1007" y="0" type="line"/>
      <point x="1007" y="1000" type="line"/>
      <point x="966" y="1000" type="line"/>
      <point x="966" y="437" type="line" smooth="yes"/>
      <point x="966" y="178"/>
      <point x="819" y="18"/>
      <point x="582" y="18" type="curve" smooth="yes"/>
      <point x="346" y="18"/>
      <point x="206" y="174"/>
      <point x="206" y="437" type="curve" smooth="yes"/>
      <point x="206" y="1000" type="line"/>
      <point x="165" y="1000" type="line"/>
      <point x="165" y="437" type="line" smooth="yes"/>
      <point x="165" y="149"/>
      <point x="319" y="-20"/>
      <point x="583" y="-20" type="curve" smooth="yes"/>
      <point x="771" y="-20"/>
      <point x="905" y="67"/>
      <point x="968" y="235" type="curve"/>
      <point x="968" y="0" type="line"/>
    </contour>
  </outline>
</glyph>
<glyph name="ubreve" format="1">
  <advance width="1192"/>
  <unicode hex="016D"/>
  <outline>
    <contour>
      <point x="897" y="1500" type="curve" name="at01"/>
      <point x="853" y="1500" type="line" name="ah01"/>
      <point x="853" y="1347"/>
      <point x="743" y="1232"/>
      <point x="596" y="1232" type="curve" smooth="yes"/>
      <point x="449" y="1232"/>
      <point x="340" y="1347"/>
      <point x="340" y="1500" type="curve" name="sh01"/>
      <point x="296" y="1500" type="line" name="at02"/>
      <point x="296" y="1326"/>
      <point x="423" y="1194"/>
      <point x="596" y="1194" type="curve" smooth="yes" name="av01"/>
      <point x="769" y="1194"/>
      <point x="897" y="1326"/>
    </contour>
    <contour>
      <point x="1007" y="0" type="line"/>
      <point x="1007" y="1000" type="line"/>
      <point x="966" y="1000" type="line"/>
      <point x="966" y="437" type="line" smooth="yes"/>
      <point x="966" y="178"/>
      <point x="819" y="18"/>
      <point x="582" y="18" type="curve" smooth="yes"/>
      <point x="346" y="18"/>
      <point x="206" y="174"/>
      <point x="206" y="437" type="curve" smooth="yes"/>
      <point x="206" y="1000" type="line"/>
      <point x="165" y="1000" type="line"/>
      <point x="165" y="437" type="line" smooth="yes"/>
      <point x="165" y="149"/>
      <point x="319" y="-20"/>
      <point x="583" y="-20" type="curve" smooth="yes"/>
      <point x="771" y="-20"/>
      <point x="905" y="67"/>
      <point x="968" y="235" type="curve"/>
      <point x="968" y="0" type="line"/>
    </contour>
  </outline>
</glyph>
<glyph name="uring" format="1">
  <advance width="1192"/>
  <unicode hex="016F"/>
  <outline>
    <contour>
      <point x="597" y="1121" type="curve" smooth="yes"/>
      <point x="717" y="1121"/>
      <point x="796" y="1200"/>
      <point x="796" y="1320" type="curve" smooth="yes"/>
      <point x="796" y="1440"/>
      <point x="717" y="1520"/>
      <point x="597" y="1520" type="curve" smooth="yes"/>
      <point x="477" y="1520"/>
      <point x="397" y="1440"/>
      <point x="397" y="1320" type="curve" smooth="yes"/>
      <point x="397" y="1200"/>
      <point x="477" y="1121"/>
    </contour>
    <contour>
      <point x="597" y="1159" type="curve" smooth="yes"/>
      <point x="502" y="1159"/>
      <point x="439" y="1223"/>
      <point x="439" y="1320" type="curve" smooth="yes"/>
      <point x="439" y="1417"/>
      <point x="502" y="1482"/>
      <point x="597" y="1482" type="curve" smooth="yes"/>
      <point x="692" y="1482"/>
      <point x="754" y="1417"/>
      <point x="754" y="1320" type="curve" smooth="yes"/>
      <point x="754" y="1223"/>
      <point x="692" y="1159"/>
    </contour>
    <contour>
      <point x="1007" y="0" type="line"/>
      <point x="1007" y="1000" type="line"/>
      <point x="966" y="1000" type="line"/>
      <point x="966" y="437" type="line" smooth="yes"/>
      <point x="966" y="178"/>
      <point x="819" y="18"/>
      <point x="582" y="18" type="curve" smooth="yes"/>
      <point x="346" y="18"/>
      <point x="206" y="174"/>
      <point x="206" y="437" type="curve" smooth="yes"/>
      <point x="206" y="1000" type="line"/>
      <point x="165" y="1000" type="line"/>
      <point x="165" y="437" type="line" smooth="yes"/>
      <point x="165" y="149"/>
      <point x="319" y="-20"/>
      <point x="583" y="-20" type="curve" smooth="yes"/>
      <point x="771" y="-20"/>
      <point x="905" y="67"/>
      <point x="968" y="235" type="curve"/>
      <point x="968" y="0" type="line"/>
    </contour>
  </outline>
</glyph>
<glyph name="Ycircumflex" format="1">
  <advance width="1348"/>
  <unicode hex="0176"/>
  <outline>
    <contour>
      <point x="911" y="1670" type="line"/>
      <point x="706" y="2000" type="line" name="at01"/>
      <point x="649" y="2000" type="line" name="at01.1"/>
      <point x="444" y="1670" type="line"/>
      <point x="478" y="1670" type="line" name="av01"/>
      <point x="678" y="1966" type="line"/>
      <point x="877" y="1670" type="line" name="av01.1"/>
    </contour>
    <contour>
      <point x="695" y="0" type="line"/>
      <point x="695" y="641" type="line"/>
      <point x="1293" y="1500" type="line"/>
      <point x="1240" y="1500" type="line"/>
      <point x="674" y="686" type="line"/>
      <point x="108" y="1500" type="line"/>
      <point x="55" y="1500" type="line"/>
      <point x="651" y="641" type="line"/>
      <point x="651" y="0" type="line"/>
    </contour>
  </outline>
</glyph>
<glyph name="ycircumflex" format="1">
  <advance width="1082"/>
  <unicode hex="0177"/>
  <outline>
    <contour>
      <point x="808" y="1170" type="line"/>
      <point x="603" y="1500" type="line" name="at01"/>
      <point x="546" y="1500" type="line" name="at01.1"/>
      <point x="341" y="1170" type="line"/>
      <point x="375" y="1170" type="line" name="av01"/>
      <point x="575" y="1466" type="line"/>
      <point x="774" y="1170" type="line" name="av01.1"/>
    </contour>
    <contour>
      <point x="376" y="-500" type="line"/>
      <point x="997" y="1000" type="line"/>
      <point x="953" y="1000" type="line"/>
      <point x="565" y="64" type="line"/>
      <point x="130" y="1000" type="line"/>
      <point x="85" y="1000" type="line"/>
      <point x="544" y="13" type="line"/>
      <point x="332" y="-500" type="line"/>
    </contour>
  </outline>
</glyph>
<glyph name="quotedblbase" format="1">
  <advance width="788"/>
  <unicode hex="201E"/>
  <outline>
    <contour>
      <point x="515" y="-240" type="line"/>
      <point x="633" y="180" type="line"/>
      <point x="583" y="180" type="line" name="av01"/>
      <point x="480" y="-240" type="line"/>
    </contour>
    <contour>
      <point x="180" y="-240" type="line"/>
      <point x="298" y="180" type="line"/>
      <point x="248" y="180" type="line" name="av01"/>
      <point x="145" y="-240" type="line"/>
    </contour>
  </outline>
</glyph>
<glyph name="divisionslash" format="1">
  <advance width="791"/>
  <unicode hex="2215"/>
  <outline>
    <contour>
      <point x="99" y="-20" type="line" name="av01"/>
      <point x="736" y="1520" type="line" name="at01"/>
      <point x="692" y="1520" type="line"/>
      <point x="55" y="-20" type="line"/>
    </contour>
  </outline>
</glyph>
